<svg xmlns="http://www.w3.org/2000/svg" xmlns:xlink="http://www.w3.org/1999/xlink" id="SVGWI10" version="1.1" viewBox="0 0 100 100"><defs><radialGradient id="SVGWI10_cloud_color" cx="60%" cy="20%" r="100%"><stop class="svgwi-cloud-color1" offset="0%" stop-color="#FFF"/><stop class="svgwi-cloud-color2" offset="30%" stop-color="#99DFFF"/><stop class="svgwi-cloud-color3" offset="75%" stop-color="#4B91D8"/></radialGradient><linearGradient id="SVGWI10_rain_drop_color" x1="0%" x2="0%" y1="0%" y2="100%"><stop class="svgwi-rain-color1" offset="10%" stop-color="#FFF" stop-opacity="0"/><stop class="svgwi-rain-color1" offset="45%" stop-color="#FFF" stop-opacity="1"/><stop class="svgwi-rain-color2" offset="60%" stop-color="#78BEEF" stop-opacity="1"/><stop class="svgwi-rain-color2" offset="85%" stop-color="#78BEEF" stop-opacity="1"/><stop class="svgwi-rain-color2" offset="100%" stop-color="#78BEEF" stop-opacity="0"/></linearGradient><linearGradient id="SVGWI10_sun_color" x1="0%" x2="0%" y1="0%" y2="100%"><stop class="svgwi-sun-circle-color1" offset="0%" stop-color="#FAE000"/><stop class="svgwi-sun-circle-color2" offset="100%" stop-color="#FA7300"/></linearGradient><path id="SVGWI10_ray1" fill="none" stroke="#FFD800" stroke-linecap="round" stroke-width="4" d="M 0 6 L 0 0" class="svgwi-sun-ray1" transform="translate(0,16)"/><path id="SVGWI10_ray2" fill="none" stroke="#FFA200" stroke-linecap="round" stroke-width="4" d="M 0 6 L 0 0" class="svgwi-sun-ray2" transform="translate(0,16)"/><path id="SVGWI10_cloud_part" fill="#FFF" d="M19.527-5.251C18.24-9.21,14.581-11.87,10.42-11.87c-0.324,0-0.646,0.023-0.967,0.055 c-0.885-4.372-4.756-7.673-9.385-7.673c-4.634,0-8.509,3.309-9.388,7.688c-0.366-0.042-0.733-0.071-1.101-0.071 c-4.161,0-7.82,2.658-9.105,6.617c-0.791,2.433-0.586,5.025,0.575,7.305c0.848,1.663,2.132,3.008,3.709,3.923 c-0.738,1.667-0.985,3.513-0.693,5.357c0.4,2.526,1.76,4.746,3.829,6.249c1.647,1.196,3.591,1.83,5.623,1.83 c2.374,0,4.648-0.892,6.388-2.446c1.751,1.604,4.063,2.525,6.477,2.525c2.031,0,3.976-0.632,5.623-1.829 c3.711-2.696,4.913-7.578,3.13-11.614c1.626-0.916,2.95-2.289,3.817-3.99C20.113-0.224,20.317-2.819,19.527-5.251z"/><clipPath id="SVGWI10_cloud"><use x="28" y="52" xlink:href="#SVGWI10_cloud_part"/><use x="72" y="52" xlink:href="#SVGWI10_cloud_part"/><use x="-35" y="-35" transform="scale(1.4) rotate(180)" xlink:href="#SVGWI10_cloud_part"/></clipPath><polygon id="SVGWI10_snow_flake" fill="#D82A2A" fill-rule="evenodd" points="6.928 0 6.563 -.633 4.949 -.633 5.653 -1.852 5.287 -2.485 4.557 -2.485 3.487 -.633 1.096 -.633 2.292 -2.703 4.43 -2.703 4.794 -3.336 4.43 -3.969 3.022 -3.969 3.83 -5.367 3.464 -6 2.734 -6 1.926 -4.602 1.223 -5.821 .492 -5.821 .126 -5.188 1.195 -3.336 0 -1.265 -1.195 -3.336 -.126 -5.188 -.492 -5.821 -1.223 -5.821 -1.926 -4.602 -2.734 -6 -3.464 -6 -3.83 -5.367 -3.022 -3.969 -4.43 -3.969 -4.794 -3.336 -4.43 -2.703 -2.292 -2.703 -1.096 -.633 -3.487 -.633 -4.556 -2.485 -5.287 -2.485 -5.653 -1.852 -4.949 -.633 -6.563 -.633 -6.928 0 -6.563 .633 -4.949 .633 -5.653 1.852 -5.287 2.485 -4.556 2.485 -3.487 .633 -1.096 .633 -2.292 2.703 -4.43 2.703 -4.794 3.336 -4.43 3.969 -3.022 3.969 -3.83 5.367 -3.464 6 -2.734 6 -1.926 4.602 -1.223 5.821 -.492 5.821 -.126 5.188 -1.195 3.336 0 1.265 1.195 3.336 .127 5.188 .492 5.821 1.223 5.821 1.926 4.602 2.734 6 3.464 6 3.83 5.367 3.022 3.969 4.43 3.969 4.795 3.336 4.43 2.703 2.292 2.703 1.096 .633 3.487 .633 4.557 2.485 5.287 2.485 5.653 1.852 4.949 .633 6.563 .633" clip-rule="evenodd"/><circle id="SVGWI10_snow_circle" cx="0" cy="0" r="2.031" fill="#D82A2A" fill-rule="evenodd" clip-rule="evenodd"/><clipPath id="SVGWI10_snow_set" transform="translate(50, 40)"><use x="-10" y="0" xlink:href="#SVGWI10_snow_circle"/><use x="10" y="0" xlink:href="#SVGWI10_snow_flake"/><use x="-15" y="20" xlink:href="#SVGWI10_snow_flake"/><use x="15" y="15" xlink:href="#SVGWI10_snow_circle"/><use x="0" y="35" xlink:href="#SVGWI10_snow_flake"/><use x="-10" y="60" xlink:href="#SVGWI10_snow_circle"/><use x="10" y="60" xlink:href="#SVGWI10_snow_flake"/><use x="-15" y="80" xlink:href="#SVGWI10_snow_flake"/><use x="15" y="75" xlink:href="#SVGWI10_snow_circle"/><use x="0" y="95" xlink:href="#SVGWI10_snow_flake"/><use x="-10" y="120" xlink:href="#SVGWI10_snow_circle"/><use x="10" y="120" xlink:href="#SVGWI10_snow_flake"/><use x="-15" y="140" xlink:href="#SVGWI10_snow_flake"/><use x="15" y="135" xlink:href="#SVGWI10_snow_circle"/><use x="0" y="155" xlink:href="#SVGWI10_snow_flake"/></clipPath></defs><circle cx="70" cy="30" r="13" fill="url(#SVGWI10_sun_color)"/><g id="SVGWI10_ray_set" transform="translate(70,30)"><use transform="rotate(0)" xlink:href="#SVGWI10_ray1"/><use transform="rotate(36)" xlink:href="#SVGWI10_ray1"/><use transform="rotate(72)" xlink:href="#SVGWI10_ray1"/><use transform="rotate(108)" xlink:href="#SVGWI10_ray1"/><use transform="rotate(144)" xlink:href="#SVGWI10_ray1"/><use transform="rotate(180)" xlink:href="#SVGWI10_ray1"/><use transform="rotate(216)" xlink:href="#SVGWI10_ray1"/><use transform="rotate(252)" xlink:href="#SVGWI10_ray1"/><use transform="rotate(288)" xlink:href="#SVGWI10_ray1"/><use transform="rotate(324)" xlink:href="#SVGWI10_ray1"/><use transform="rotate(18)" xlink:href="#SVGWI10_ray2"/><use transform="rotate(54)" xlink:href="#SVGWI10_ray2"/><use transform="rotate(90)" xlink:href="#SVGWI10_ray2"/><use transform="rotate(126)" xlink:href="#SVGWI10_ray2"/><use transform="rotate(162)" xlink:href="#SVGWI10_ray2"/><use transform="rotate(198)" xlink:href="#SVGWI10_ray2"/><use transform="rotate(234)" xlink:href="#SVGWI10_ray2"/><use transform="rotate(270)" xlink:href="#SVGWI10_ray2"/><use transform="rotate(306)" xlink:href="#SVGWI10_ray2"/><use transform="rotate(342)" xlink:href="#SVGWI10_ray2"/></g><rect width="100" height="100" fill="url(#SVGWI10_cloud_color)" clip-path="url(#SVGWI10_cloud)" transform="translate(2, 0) scale(.95)"/><rect width="100" height="50" y="45" fill="url(#SVGWI10_rain_drop_color)" clip-path="url(#SVGWI10_snow_set)"/><script type="text/javascript"><![CDATA[
		!function(){function s(a){k[a].curLength+=(k[a].curTarget-k[a].curLength)/b,k[a].target.setAttribute("stroke-dashoffset",k[a].curLength),k[a].curLength>k[a].curTarget-.3&&k[a].curLength<k[a].curTarget+.3&&(k[a].curTarget==2*n?k[a].curTarget=n:k[a].curTarget=2*n)}function t(){requestAnimationFrame(t),h+=c,o.setAttribute("transform","rotate("+h+")"),j+=d,j>0&&(j-=60),p.setAttribute("transform","translate(50,"+j+")"),i+=5,q.setAttribute("transform","rotate("+i+" 1,1)"),r.setAttribute("transform","rotate(-"+i+" 4,-4)"),s(0),s(1),m.transform.baseVal.appendItem(l.createSVGTransformFromMatrix(l.createSVGMatrix().rotate(a)))}for(var a=.5,b=.5,c=.5,d=1,e=0,f=["ms","moz","webkit","o"],g=0;g<f.length&&!window.requestAnimationFrame;++g)window.requestAnimationFrame=window[f[g]+"RequestAnimationFrame"],window.cancelAnimationFrame=window[f[g]+"CancelAnimationFrame"]||window[f[g]+"CancelRequestAnimationFrame"];window.requestAnimationFrame||(window.requestAnimationFrame=function(a,b){var c=(new Date).getTime(),d=Math.max(0,16-(c-e)),f=window.setTimeout(function(){a(c+d)},d);return e=c+d,f}),window.cancelAnimationFrame||(window.cancelAnimationFrame=function(a){clearTimeout(a)}),b=Math.max(1/b*7,3);var h=0,i=0,j=0,k=[],l=document.getElementById("SVGWI10"),m=document.getElementById("SVGWI10_ray_set"),n=document.getElementById("SVGWI10_ray1").getTotalLength(),o=document.getElementById("SVGWI10_cloud_part"),p=document.getElementById("SVGWI10_snow_set"),q=document.getElementById("SVGWI10_snow_flake"),r=document.getElementById("SVGWI10_snow_circle");k.push({curLength:n,curTarget:n,target:document.getElementById("SVGWI10_ray1")}),k.push({curLength:2*n,curTarget:2*n,target:document.getElementById("SVGWI10_ray2")}),k[0].target.setAttribute("stroke-dasharray",n),k[0].target.setAttribute("stroke-dashoffset",n),k[1].target.setAttribute("stroke-dasharray",n),k[1].target.setAttribute("stroke-dashoffset",n),t()}();
	]]></script></svg>