<svg xmlns="http://www.w3.org/2000/svg" xmlns:xlink="http://www.w3.org/1999/xlink" id="Layer_1" x="0" y="0" version="1.1" viewBox="0 0 96 96" xml:space="preserve" style="enable-background:new 0 0 96 96"><style type="text/css">.st0{fill:#333}</style><g id="XMLID_6_"><path id="XMLID_12_" d="M41.3,27.4c-3.2,0.2-5.2,1.5-6.7,2.6c-1.5,1.1-2.3,1.8-4.6,1.9h-0.2c-2.4,0-3.1-0.7-4.6-1.9 c-1.5-1.1-3.7-2.4-6.9-2.5c-1.7,0-2.9,1.1-2.9,2.4c0,1.6,1.5,1.9,2.4,1.9c2.4,0,3.2,0.7,4.7,1.9c1.5,1.1,3.7,2.7,7.3,2.7 c3.6,0,5.8-1.6,7.3-2.7c1.4-1.1,2.2-1.8,4.3-1.9c0.2,0,0.5,0,0.7,0c2.3,0,3.1,0.8,4.6,1.9c1.5,1.1,3.6,2.6,7,2.7c0.2,0,0.5,0,0.7,0 c3.3-0.1,5.4-1.6,6.9-2.7c2.1-1.4,3-1.8,5.1-1.9c2.3,0.1,3.1,0.8,4.6,1.9c2.8,1.6,5.1,2.6,7.3,2.6c1.2,0,2.2-0.9,2.2-2.1 c0-1.2-1-2.1-2.2-2.1c-2.3,0-3.6-1.2-4.7-1.9c-1.5-1.1-3.6-2.5-6.9-2.6c-2.8,0-5.6,1.2-7.8,2.6c-1.5,1.1-2.3,1.8-4.6,1.9h-0.1 c-2.4,0-3.2-0.7-4.7-1.9c-1.5-1.1-3.7-2.5-7.2-2.6H41.3L41.3,27.4z M41.3,38.2c-3.2,0.2-5.2,1.5-6.7,2.6c-1.5,1.1-2.3,1.8-4.6,1.9 h-0.2c-2.4,0-3.1-0.7-4.6-1.9c-1.5-1.1-3.7-2.4-6.9-2.5c-1.7,0-2.9,1.1-2.9,2.4c0,1.6,1.5,1.9,2.4,1.9c2.4,0,3.2,0.7,4.7,1.9 c1.5,1.1,3.7,2.7,7.3,2.7c3.6,0,5.8-1.6,7.3-2.7c1.4-1.1,2.2-1.8,4.3-1.9c0.2,0,0.5,0,0.7,0c2.3,0,3.1,0.8,4.6,1.9 c1.5,1.1,3.6,2.6,7,2.7c0.2,0,0.5,0,0.7,0c3.3-0.1,5.4-1.6,6.9-2.7c2.1-1.4,3-1.8,5.1-1.9c2.3,0.1,3.1,0.8,4.6,1.9 c2.8,1.6,5.1,2.6,7.3,2.6c1.2,0,2.2-0.9,2.2-2.1c0-1.2-1-2.1-2.2-2.1c-2.3,0-3.6-1.2-4.7-1.9c-1.5-1.1-3.6-2.5-6.9-2.6 c-2.8,0-5.6,1.2-7.8,2.6c-1.5,1.1-2.3,1.8-4.6,1.9h-0.1c-2.4,0-3.2-0.7-4.7-1.9c-1.5-1.1-3.7-2.5-7.2-2.6H41.3L41.3,38.2z M41.3,49 c-3.2,0.2-5.2,1.5-6.7,2.6c-1.5,1.1-2.3,1.8-4.6,1.9h-0.2c-2.4,0-3.1-0.7-4.6-1.9c-1.5-1.1-3.7-2.4-6.9-2.5c-1.7,0-2.9,1.1-2.9,2.4 c0,1.6,1.5,1.9,2.4,1.9c2.4,0,3.2,0.7,4.7,1.9c1.5,1.1,3.7,2.7,7.3,2.7c3.6,0,5.8-1.6,7.3-2.7c1.4-1.1,2.2-1.8,4.3-1.9 c0.2,0,0.5,0,0.7,0c2.3,0,3.1,0.8,4.6,1.9c1.5,1.1,3.6,2.6,7,2.7c0.2,0,0.5,0,0.7,0c3.3-0.1,5.4-1.6,6.9-2.7c2.1-1.4,3-1.8,5.1-1.9 c2.3,0.1,3.1,0.8,4.6,1.9c2.8,1.6,5.1,2.6,7.3,2.6c1.2,0,2.2-0.9,2.2-2.1c0-1.2-1-2.1-2.2-2.1c-2.3,0-3.6-1.2-4.7-1.9 c-1.5-1.1-3.6-2.5-6.9-2.6c-2.8,0-5.6,1.2-7.8,2.6c-1.5,1.1-2.3,1.8-4.6,1.9h-0.1c-2.4,0-3.2-0.7-4.7-1.9c-1.5-1.1-3.7-2.5-7.2-2.6 H41.3L41.3,49z M41.3,59.8c-3.2,0.2-5.2,1.5-6.7,2.6c-1.5,1.1-2.3,1.8-4.6,1.9h-0.2c-2.4,0-3.1-0.7-4.6-1.9 c-1.5-1.1-3.7-2.4-6.9-2.5c-1.7,0-2.9,1.1-2.9,2.4c0,1.6,1.5,1.9,2.4,1.9c2.4,0,3.2,0.7,4.7,1.9c1.5,1.1,3.7,2.7,7.3,2.7 c3.6,0,5.8-1.6,7.3-2.7c1.4-1.1,2.2-1.8,4.3-1.9c0.2,0,0.5,0,0.7,0c2.3,0,3.1,0.8,4.6,1.9c1.5,1.1,3.6,2.6,7,2.7c0.2,0,0.5,0,0.7,0 c3.3-0.1,5.4-1.6,6.9-2.7c2.1-1.4,3-1.8,5.1-1.9c2.3,0.1,3.1,0.8,4.6,1.9c2.8,1.6,5.1,2.6,7.3,2.6c1.2,0,2.2-0.9,2.2-2.1 c0-1.2-1-2.1-2.2-2.1c-2.3,0-3.6-1.2-4.7-1.9c-1.5-1.1-3.6-2.5-6.9-2.6c-2.8,0-5.6,1.2-7.8,2.6c-1.5,1.1-2.3,1.8-4.6,1.9h-0.1 c-2.4,0-3.2-0.7-4.7-1.9c-1.5-1.1-3.7-2.5-7.2-2.6H41.3L41.3,59.8z" class="st0"/></g></svg>